<?xml version="1.0" encoding="utf-8"?>
<!-- Generator: Adobe Illustrator 25.4.1, SVG Export Plug-In . SVG Version: 6.00 Build 0)  -->
<svg version="1.1" id="Layer_1" xmlns="http://www.w3.org/2000/svg" xmlns:xlink="http://www.w3.org/1999/xlink" x="0px" y="0px"
	 viewBox="0 0 20 20" style="enable-background:new 0 0 20 20;" xml:space="preserve">
<style type="text/css">
	.st0{fill:#010101;}
</style>
<g>
	<path class="st0" d="M18.5,8.6c-1.3-2.9-4.8-4.8-8.6-4.8h0c-3.8,0-7.2,1.9-8.5,4.8L1.3,8.7l0.1,0.1c1.3,2.9,4.8,4.8,8.6,4.8h0
		c3.8,0,7.2-1.9,8.5-4.8l0.1-0.1L18.5,8.6z M10,13L10,13c-3.5,0-6.6-1.7-7.9-4.3C3.4,6.2,6.5,4.5,10,4.5h0c3.5,0,6.6,1.7,7.9,4.3
		C16.6,11.3,13.5,13,10,13z"/>
	<path class="st0" d="M16.3,12.7c0.1,0,0.2,0.1,0.3,0.1l0.9,1.3c0.1,0.2,0.1,0.4-0.1,0.5s-0.4,0.1-0.5-0.1l-0.9-1.3
		c-0.1-0.2-0.1-0.4,0.1-0.5C16.2,12.7,16.3,12.7,16.3,12.7z"/>
	<path class="st0" d="M14.4,13.7c0.1,0,0.3,0.1,0.3,0.2l0.7,1.5c0.1,0.2,0,0.4-0.2,0.5s-0.4,0-0.5-0.2L14,14.2
		c-0.1-0.2,0-0.4,0.2-0.5C14.3,13.7,14.3,13.7,14.4,13.7z"/>
	<path class="st0" d="M12.1,14.3c0.2,0,0.3,0.1,0.3,0.3l0.4,1.7c0,0.2-0.1,0.4-0.3,0.4c-0.2,0-0.4-0.1-0.4-0.3l-0.4-1.7
		C11.7,14.6,11.8,14.4,12.1,14.3C12.1,14.3,12.1,14.3,12.1,14.3z"/>
	<path class="st0" d="M10,14.5c0.2,0,0.4,0.1,0.4,0.4v1.8c0,0.2-0.1,0.4-0.4,0.4c-0.2,0-0.4-0.1-0.4-0.4v-1.8
		C9.6,14.7,9.8,14.5,10,14.5z"/>
	<path class="st0" d="M3.6,12.7c0.1,0,0.1,0,0.2,0.1C4,12.8,4,13,3.9,13.2l-0.9,1.3c-0.1,0.2-0.3,0.2-0.5,0.1s-0.2-0.3-0.1-0.5
		l0.9-1.3C3.4,12.7,3.5,12.7,3.6,12.7z"/>
	<path class="st0" d="M5.6,13.7c0,0,0.1,0,0.1,0C5.9,13.8,6,14,5.9,14.2l-0.7,1.5c-0.1,0.2-0.3,0.2-0.5,0.2
		c-0.2-0.1-0.2-0.3-0.2-0.5l0.7-1.5C5.3,13.8,5.5,13.7,5.6,13.7z"/>
	<path class="st0" d="M7.8,14.3C7.9,14.3,7.9,14.3,7.8,14.3c0.3,0.1,0.4,0.2,0.3,0.4l-0.4,1.7c0,0.2-0.2,0.3-0.4,0.3
		c-0.2,0-0.3-0.2-0.3-0.4l0.4-1.7C7.5,14.5,7.7,14.3,7.8,14.3z"/>
</g>
</svg>
