<?xml version="1.0" encoding="utf-8"?>
<!-- Generator: Adobe Illustrator 25.4.1, SVG Export Plug-In . SVG Version: 6.00 Build 0)  -->
<svg version="1.1" id="Layer_1" xmlns="http://www.w3.org/2000/svg" xmlns:xlink="http://www.w3.org/1999/xlink" x="0px" y="0px"
	 viewBox="0 0 20 20" style="enable-background:new 0 0 20 20;" xml:space="preserve">
<style type="text/css">
	.st0{fill:#010101;}
</style>
<g>
	<path class="st0" d="M18.6,11.5c-1.3-2.9-4.8-4.8-8.6-4.8h0c-3.8,0-7.2,1.9-8.5,4.8l-0.1,0.1l0.1,0.1c1.3,2.9,4.8,4.8,8.6,4.8h0
		c3.8,0,7.2-1.9,8.5-4.8l0.1-0.1L18.6,11.5z M10,15.9L10,15.9c-3.5,0-6.6-1.7-7.9-4.3C3.4,9.1,6.5,7.4,10,7.4h0
		c3.5,0,6.6,1.7,7.9,4.3C16.6,14.2,13.5,15.9,10,15.9z"/>
	<path class="st0" d="M3.6,7.8c-0.1,0-0.2-0.1-0.3-0.2L2.5,6.3C2.4,6.2,2.4,6,2.6,5.9C2.8,5.8,3,5.8,3.1,6l0.9,1.3
		C4,7.4,4,7.6,3.8,7.7C3.8,7.7,3.7,7.8,3.6,7.8z"/>
	<path class="st0" d="M5.6,6.7c-0.1,0-0.3-0.1-0.3-0.2L4.6,5c-0.1-0.2,0-0.4,0.2-0.5s0.4,0,0.5,0.2l0.7,1.5c0.1,0.2,0,0.4-0.2,0.5
		C5.7,6.7,5.7,6.7,5.6,6.7z"/>
	<path class="st0" d="M7.9,6.1C7.7,6.1,7.6,6,7.5,5.8L7.2,4.1c0-0.2,0.1-0.4,0.3-0.4S7.8,3.8,7.9,4l0.4,1.7C8.3,5.8,8.1,6,7.9,6.1
		C7.9,6.1,7.9,6.1,7.9,6.1z"/>
	<path class="st0" d="M10,5.9c-0.2,0-0.4-0.2-0.4-0.3V3.7c0-0.2,0.1-0.3,0.4-0.3c0.2,0,0.4,0.1,0.4,0.3v1.8
		C10.4,5.7,10.2,5.9,10,5.9z"/>
	<path class="st0" d="M16.4,7.8c-0.1,0-0.1,0-0.2-0.1C16,7.6,16,7.4,16.1,7.2L16.9,6c0.1-0.2,0.3-0.2,0.5-0.1s0.2,0.3,0.1,0.5
		l-0.9,1.2C16.6,7.7,16.5,7.8,16.4,7.8z"/>
	<path class="st0" d="M14.4,6.7c0,0-0.1,0-0.1,0c-0.2-0.1-0.2-0.3-0.2-0.5l0.7-1.5c0.1-0.2,0.3-0.2,0.5-0.2c0.2,0.1,0.2,0.3,0.2,0.5
		l-0.7,1.5C14.6,6.6,14.5,6.7,14.4,6.7z"/>
	<path class="st0" d="M12.1,6.1C12.1,6.1,12.1,6.1,12.1,6.1c-0.3,0-0.4-0.2-0.3-0.4L12.1,4c0-0.2,0.2-0.3,0.4-0.3
		c0.2,0,0.3,0.2,0.3,0.4l-0.4,1.7C12.4,6,12.3,6.1,12.1,6.1z"/>
	<path class="st0" d="M14.1,9.8c-0.1-0.2-0.2-0.4-0.4-0.6c-0.1-0.1-0.1-0.2-0.2-0.3c-0.2-0.2-0.4-0.4-0.6-0.6
		c-0.2-0.2-0.4-0.3-0.6-0.4c-0.3-0.2-0.6-0.3-0.9-0.4c-0.2-0.1-0.4-0.1-0.6-0.2c-0.3-0.1-0.6-0.1-0.9-0.1c0,0-0.1,0-0.1,0
		c-0.2,0-0.3,0-0.5,0c-0.3,0-0.6,0.1-0.9,0.2C8.4,7.4,8.2,7.5,8,7.6C7.7,7.7,7.4,7.9,7.2,8.1C7,8.3,6.8,8.4,6.6,8.6
		C6.5,8.7,6.5,8.8,6.4,8.8C6.3,9,6.2,9.2,6.1,9.3C6,9.5,5.9,9.6,5.8,9.8c-0.3,0.6-0.4,1.2-0.4,1.9c0,2.5,2,4.6,4.6,4.6
		s4.6-2,4.6-4.6C14.6,11,14.4,10.4,14.1,9.8z M10,15.4c-2,0-3.7-1.7-3.7-3.7S8,8,10,8s3.7,1.7,3.7,3.7C13.7,13.7,12,15.4,10,15.4z"
		/>
	<path class="st0" d="M10,9.2c-0.5,0-1,0.2-1.4,0.4c0.2,0,0.4,0,0.6,0.2c0.4,0.3,0.5,0.9,0.2,1.3c-0.3,0.4-0.9,0.5-1.3,0.2
		c-0.2-0.2-0.4-0.5-0.4-0.7c-0.2,0.3-0.3,0.7-0.3,1.1c0,1.4,1.1,2.5,2.5,2.5s2.5-1.1,2.5-2.5C12.5,10.3,11.4,9.2,10,9.2z M11.3,13.1
		c-0.1,0.2-0.4,0.2-0.6,0.1c-0.2-0.1-0.2-0.4-0.1-0.6c0.1-0.2,0.4-0.2,0.6-0.1C11.4,12.7,11.5,13,11.3,13.1z M11.5,12.5
		c-0.1-0.1-0.1-0.2,0-0.3c0.1-0.1,0.2-0.1,0.3-0.1c0.1,0.1,0.1,0.2,0,0.3C11.8,12.5,11.6,12.5,11.5,12.5z"/>
</g>
</svg>
